<?xml version="1.0" encoding="UTF-8"?>
<svg xmlns="http://www.w3.org/2000/svg" width="242.402" height="211.671" viewBox="0 0 242.402 211.671">
  <g transform="translate(-832.213 -724.02)">
    <path d="M1007.1,828.212c-1.612-3.612-4.866-6.239-7.909-8.385a73.4,73.4,0,0,0-12.237-7.046,71.533,71.533,0,0,0-13.4-4.457,69.128,69.128,0,0,0-13.444-1.813,66.53,66.53,0,0,0-13.534,1.025,64.849,64.849,0,0,0-12.988,3.885,68.113,68.113,0,0,0-12.051,6.231,63.418,63.418,0,0,0-10.468,8.646,44.232,44.232,0,0,0-4.738,5.144,6.111,6.111,0,0,0-1.359,2.981c-.058,1.462,1.538,2.344,2.4,3.324,1.089,1.235,2.15,2.479,3.318,3.644a51.344,51.344,0,0,0,7.408,6.115,57.248,57.248,0,0,0,17.245,7.8c12.587,3.4,26.082,2.993,38.683-.113a85.335,85.335,0,0,0,18.632-6.929,75.308,75.308,0,0,0,8.643-5.195,23.263,23.263,0,0,0,4.019-4.142c1.177-1.369,3.226-2.427,3.684-4.365C1009.52,832.38,1007.946,830.111,1007.1,828.212Zm-54.826-10.524c2.856-3.35,11.052-4.011,14.677-.747a5.138,5.138,0,0,1,1.584,2.2,9.558,9.558,0,0,1,.533,4.489c-.612,3.413-4.6,4.678-7.363,4.946a11.566,11.566,0,0,1-9.9-4.484A5.019,5.019,0,0,1,952.272,817.688Zm-5.226,32.185a63.3,63.3,0,0,1-30.838-12.489,2.436,2.436,0,0,1-.134-3.74c1.392-1.253,2.727-2.611,4.083-3.773a70.434,70.434,0,0,1,9.17-6.786,31.142,31.142,0,0,1,7.919-3.472c2.538-.688,2.5,2.832,2.454,4.428-.088,3.205-.242,6.271,1.183,9.238a16.467,16.467,0,0,0,5.987,6.8,21.742,21.742,0,0,0,10.626,3.114,23.577,23.577,0,0,0,10.86-2.108,17.386,17.386,0,0,0,8.2-7.386,16.809,16.809,0,0,0,1.782-5.75c.271-2.039-.532-5.129.564-6.893a2.242,2.242,0,0,1,.792-.681c3.239-2.037,9.268,4.178,11.83,5.933a24.748,24.748,0,0,1,6.989,6.521c.523.795,1.57,1.742-.122,3.313A69.442,69.442,0,0,1,947.046,849.873Z" transform="translate(-3.75 -4.25)" fill="#f56043"></path>
    <g transform="translate(950.784 724.02)">
      <path d="M967.19,790.193c-.122-3.894-.442-7.778-.82-11.664s-.8-7.751-1.193-11.626-.651-7.765-.835-11.652c-.277-5.842.924-11.955.135-17.748-.562-4.119-2.237-7.769-2.411-12-.079-1.906-3.265-2.027-3.416-.093-.333,4.287-.5,8.586-.642,12.892s-.257,8.6-.286,12.9-.045,8.6-.046,12.9-.066,8.6-.121,12.9-.126,8.6-.319,12.893C956.909,797.136,967.418,797.491,967.19,790.193Z" transform="translate(-957.227 -724.02)" fill="#f56043"></path>
    </g>
    <g transform="translate(965.691 735.309)">
      <path d="M982.56,793.27a130.543,130.543,0,0,1,2.307-14.024c1-4.6,2.187-9.207,3.475-13.789,1.284-4.567,2.755-9.088,4.115-13.606,1.379-4.584,2.708-9.147,3.945-13.651.5-1.831-2.486-3.175-3.49-1.544a73.965,73.965,0,0,0-6.277,13.707c-1.709,4.685-3.237,9.461-5.021,14.241-1.609,4.309-3.457,8.8-5.035,13.352a79.252,79.252,0,0,0-3.568,13.8C972.056,797.982,981.907,799.492,982.56,793.27Z" transform="translate(-972.944 -735.923)" fill="#f56043"></path>
    </g>
    <g transform="translate(982.17 760.078)">
      <path d="M996.339,801.457c4.189-2.539,6.62-9.4,9.086-13.509a69.972,69.972,0,0,0,4.039-8.622c.624-1.461,5.665-9.514,6.4-10.923.623-1.189,1.809-2.46,1.79-3.844a2.469,2.469,0,0,0-3.314-2.344c-2.15.9-3.087,2.171-4.227,4.168-1.793,3.144-8.145,12.606-10.221,15.579-3.316,4.75-7.908,10.263-9.446,15.9C989.516,801.275,993.9,802.936,996.339,801.457Z" transform="translate(-990.319 -762.037)" fill="#f56043"></path>
    </g>
    <g transform="translate(994.506 773.939)">
      <path d="M1044.518,779.7a2.183,2.183,0,0,0-1.591-3.009c-1.39-.388-5.394,1.905-9.937,5-2.982,2.034-6.2,4.434-9.1,6.64-4.3,3.275-7.88,6.157-8.858,6.926-2.86,2.243-5.771,4.421-8.64,6.652-2.35,1.829-4.5,4.47-1.849,7.245a4.287,4.287,0,0,0,6.374-.183,43.43,43.43,0,0,1,5.622-5.615c1.234-.949,5.16-3.915,9.7-7.47,3.119-2.438,6.551-5.125,9.579-7.657C1040.27,784.521,1043.839,781.167,1044.518,779.7Z" transform="translate(-1003.325 -776.652)" fill="#f56043"></path>
    </g>
    <g transform="translate(1006.726 792.858)">
      <path d="M1063.877,796.63c-1.034-.293-6.022,1.485-11.928,3.934-3.76,1.559-7.87,3.425-11.6,5.079-5.8,2.567-10.636,4.748-11.572,5.107-3.225,1.236-6.413,2.429-9.726,3.406-5.475,1.618-2.265,10.442,3.163,8.426,1.432-.532,6.615-2.927,12.71-5.826,4.07-1.936,8.53-4.135,12.565-6.133,6.045-2.994,11.077-5.65,12.3-6.557C1061.216,803.013,1068.909,798.063,1063.877,796.63Z" transform="translate(-1016.209 -796.599)" fill="#f56043"></path>
    </g>
    <g transform="translate(1015.573 825.737)">
      <path d="M1082.977,833.868a6.729,6.729,0,0,0-1.046-.274c-2.016-.283-6.77-.605-12.252-.881-3.968-.2-8.319-.322-12.29-.471-5.481-.207-10.239-.423-12.281-.445-5.147-.056-11.056-1.1-16.113-.1a3.971,3.971,0,0,0,.785,7.9c3.076-.013,7.826-.019,13.3-.04,4.158-.017,8.732,0,13.3-.092s9.141-.274,13.288-.494a101.214,101.214,0,0,0,13.221-1.268,2.166,2.166,0,0,0,1.67-2.34C1084.43,834.508,1083.741,834.107,1082.977,833.868Z" transform="translate(-1025.537 -831.264)" fill="#f56043"></path>
    </g>
    <g transform="translate(917.523 735.352)">
      <path d="M936.044,793.279c.652,6.222,10.589,4.7,9.636-1.526a79.34,79.34,0,0,0-3.645-13.774c-1.578-4.555-3.4-9.051-5.012-13.36-1.784-4.78-3.211-9.594-4.919-14.279a74.129,74.129,0,0,0-6.431-13.629c-1.006-1.631-3.959-.323-3.458,1.506,1.237,4.506,2.695,9.033,4.075,13.619,1.359,4.519,2.685,9.083,3.968,13.65s2.5,9.175,3.5,13.775A130.94,130.94,0,0,1,936.044,793.279Z" transform="translate(-922.159 -735.967)" fill="#f56043"></path>
    </g>
    <g transform="translate(897.222 760.093)">
      <path d="M909.016,779.317a69.792,69.792,0,0,0,4,8.646c2.465,4.109,4.9,10.982,9.092,13.521,2.443,1.479,6.835-.208,5.9-3.625-1.536-5.632-6.163-11.121-9.478-15.871-2.076-2.974-8.41-12.452-10.2-15.595-1.14-2-2.066-3.261-4.217-4.162a2.492,2.492,0,0,0-3.354,2.327c-.019,1.383,1.254,2.637,1.877,3.826C903.368,769.792,908.392,777.857,909.016,779.317Z" transform="translate(-900.755 -762.053)" fill="#f56043"></path>
    </g>
    <g transform="translate(870.824 773.941)">
      <path d="M901.125,803.4a43.382,43.382,0,0,1,5.619,5.608,4.312,4.312,0,0,0,6.4.147c2.651-2.775.476-5.365-1.875-7.193-2.869-2.232-5.749-4.449-8.609-6.693-.98-.768-4.541-3.674-8.843-6.949-2.9-2.207-6.14-4.571-9.123-6.6-4.541-3.1-8.531-5.4-9.922-5.017a2.233,2.233,0,0,0-1.647,3.032c.68,1.464,4.31,4.794,8.755,8.51,3.026,2.531,6.461,5.214,9.577,7.651C896,799.443,899.891,802.448,901.125,803.4Z" transform="translate(-872.922 -776.654)" fill="#f56043"></path>
    </g>
    <g transform="translate(850.691 792.863)">
      <path d="M898.209,814.185c-3.314-.977-6.505-2.165-9.73-3.4-.937-.359-5.739-2.629-11.538-5.2-3.73-1.652-7.871-3.436-11.629-4.995-5.908-2.45-10.888-4.249-11.923-3.956-5.031,1.432,2.615,6.44,4.041,7.494,1.228.909,6.334,3.47,12.389,6.469,4.036,2,8.474,4.238,12.542,6.172,6.087,2.9,11.272,5.257,12.7,5.788C900.491,824.574,903.683,815.8,898.209,814.185Z" transform="translate(-851.696 -796.604)" fill="#f56043"></path>
    </g>
    <g transform="translate(832.213 825.751)">
      <path d="M887.751,831.685c-5.057-1-10.967.149-16.114.2-2.042.022-6.8.077-12.282.283-3.971.149-8.318.391-12.285.59-5.485.276-10.24.566-12.255.849a6.516,6.516,0,0,0-1.046.266,1.9,1.9,0,0,0-1.535,1.488,2.049,2.049,0,0,0,1.637,2.252,96.741,96.741,0,0,0,13.208,1.421c4.149.22,8.72.375,13.292.464s9.142.127,13.3.143c5.47.022,10.219-.036,13.294-.022A3.992,3.992,0,0,0,887.751,831.685Z" transform="translate(-832.213 -831.279)" fill="#f56043"></path>
    </g>
    <g transform="translate(946.077 864.212)">
      <path d="M952.268,877.136c.122,3.9.443,7.778.821,11.664s.8,7.751,1.193,11.626.651,7.765.834,11.652c.277,5.842-.924,11.955-.135,17.748.562,4.119,2.237,7.769,2.411,11.994.079,1.906,3.266,2.028,3.416.094.334-4.287.5-8.586.643-12.892s.257-8.595.285-12.9.045-8.6.047-12.9.065-8.6.121-12.9.126-8.6.319-12.893C962.549,870.194,952.04,869.838,952.268,877.136Z" transform="translate(-952.264 -871.83)" fill="#f56043"></path>
    </g>
    <g transform="translate(917.624 863.076)">
      <path d="M936.162,874.612a130.583,130.583,0,0,1-2.307,14.025c-1,4.6-2.187,9.206-3.476,13.788-1.283,4.566-2.754,9.087-4.114,13.605-1.379,4.585-2.708,9.147-3.944,13.651-.5,1.83,2.485,3.175,3.49,1.544a73.979,73.979,0,0,0,6.277-13.707c1.709-4.685,3.237-9.461,5.021-14.241,1.609-4.309,3.456-8.8,5.035-13.352a79.291,79.291,0,0,0,3.568-13.8C946.666,869.9,936.815,868.389,936.162,874.612Z" transform="translate(-922.266 -870.632)" fill="#f56043"></path>
    </g>
    <g transform="translate(897.321 859.672)">
      <path d="M922.176,867.585c-4.189,2.539-6.62,9.4-9.085,13.509a69.752,69.752,0,0,0-4.041,8.623c-.624,1.461-5.665,9.514-6.4,10.921-.622,1.19-1.809,2.462-1.79,3.845a2.469,2.469,0,0,0,3.314,2.344c2.15-.9,3.087-2.171,4.227-4.167,1.793-3.143,8.145-12.606,10.221-15.58,3.316-4.749,7.909-10.262,9.445-15.894C929,867.768,924.619,866.106,922.176,867.585Z" transform="translate(-900.859 -867.043)" fill="#f56043"></path>
    </g>
    <g transform="translate(870.923 851.93)">
      <path d="M873.231,889.672a2.184,2.184,0,0,0,1.592,3.009c1.39.386,5.395-1.906,9.936-5,2.983-2.033,6.2-4.434,9.1-6.64,4.3-3.275,7.88-6.156,8.858-6.927,2.86-2.242,5.77-4.421,8.64-6.652,2.35-1.828,4.5-4.469,1.85-7.244a4.289,4.289,0,0,0-6.375.183,43.453,43.453,0,0,1-5.622,5.614c-1.234.95-5.161,3.916-9.7,7.47-3.119,2.439-6.551,5.126-9.579,7.658C877.481,884.854,873.911,888.208,873.231,889.672Z" transform="translate(-873.026 -858.881)" fill="#f56043"></path>
    </g>
    <g transform="translate(850.747 840.571)">
      <path d="M853.441,873.155c1.034.293,6.021-1.485,11.928-3.934,3.761-1.56,7.87-3.425,11.6-5.079,5.8-2.568,10.636-4.748,11.572-5.107,3.225-1.236,6.413-2.429,9.726-3.407,5.475-1.617,2.266-10.441-3.163-8.425-1.432.532-6.615,2.927-12.71,5.826-4.07,1.936-8.53,4.134-12.565,6.133-6.045,2.995-11.077,5.65-12.3,6.557C856.1,866.772,848.409,871.723,853.441,873.155Z" transform="translate(-851.754 -846.905)" fill="#f56043"></path>
    </g>
    <g transform="translate(965.718 863.073)">
      <path d="M982.674,874.6c-.653-6.222-10.589-4.7-9.636,1.526a79.354,79.354,0,0,0,3.645,13.775c1.578,4.555,3.4,9.051,5.012,13.36,1.784,4.78,3.211,9.593,4.919,14.278a74.068,74.068,0,0,0,6.432,13.63c1.005,1.631,3.959.324,3.457-1.506-1.237-4.506-2.695-9.033-4.074-13.619-1.359-4.519-2.684-9.083-3.968-13.65s-2.5-9.174-3.5-13.775A130.84,130.84,0,0,1,982.674,874.6Z" transform="translate(-972.973 -870.63)" fill="#f56043"></path>
    </g>
    <g transform="translate(982.224 859.649)">
      <path d="M1009.5,889.725a69.722,69.722,0,0,0-4-8.645c-2.465-4.11-4.9-10.983-9.092-13.522-2.443-1.479-6.835.208-5.9,3.625,1.536,5.632,6.163,11.121,9.479,15.871,2.075,2.973,8.409,12.451,10.2,15.594,1.14,2,2.066,3.261,4.216,4.161a2.492,2.492,0,0,0,3.356-2.326c.02-1.384-1.254-2.636-1.876-3.826C1015.144,899.25,1010.12,891.185,1009.5,889.725Z" transform="translate(-990.376 -867.019)" fill="#f56043"></path>
    </g>
    <g transform="translate(994.571 851.922)">
      <path d="M1016.623,865.977a43.378,43.378,0,0,1-5.618-5.608,4.31,4.31,0,0,0-6.4-.147c-2.652,2.775-.476,5.365,1.875,7.193,2.869,2.231,5.749,4.448,8.609,6.691.979.769,4.54,3.675,8.843,6.95,2.9,2.206,6.14,4.57,9.123,6.6,4.541,3.1,8.531,5.4,9.922,5.018a2.232,2.232,0,0,0,1.647-3.032c-.68-1.465-4.31-4.795-8.755-8.512-3.027-2.53-6.461-5.213-9.578-7.65C1021.752,869.931,1017.857,866.925,1016.623,865.977Z" transform="translate(-1003.393 -858.872)" fill="#f56043"></path>
    </g>
    <g transform="translate(1006.779 840.594)">
      <path d="M1019.109,855.6c3.312.977,6.5,2.163,9.729,3.4.937.36,5.738,2.629,11.538,5.2,3.73,1.652,7.871,3.436,11.629,4.994,5.908,2.45,10.889,4.249,11.922,3.956,5.032-1.432-2.614-6.44-4.039-7.494-1.228-.909-6.334-3.47-12.389-6.47-4.036-2-8.475-4.238-12.542-6.173-6.087-2.895-11.273-5.256-12.7-5.788C1016.826,845.213,1013.635,853.985,1019.109,855.6Z" transform="translate(-1016.266 -846.929)" fill="#f56043"></path>
    </g>
  </g>
</svg>
